<svg width="387" height="143" viewBox="0 0 387 143" fill="none" xmlns="http://www.w3.org/2000/svg">
<path fill-rule="evenodd" clip-rule="evenodd" d="M92.715 5.244C87.632 13.281 85.772 14.654 78.926 15.429C73.502 16.043 72.305 15.863 69.878 14.068C68.34 12.931 66.613 12 66.04 12C65.468 12 65 11.599 65 11.108C65 9.979 60.207 8.621 57.263 8.916C54.179 9.225 45.116 12.484 43.865 13.735C43.165 14.435 43.18 15.986 43.914 18.63C45.891 25.748 45.396 27.698 40.75 31.098C36.603 34.134 36.319 34.191 29 33.492C16.585 32.305 16.15 32.38 12.155 36.409L8.49999 40.096L12 43.305C13.925 45.07 16.85 47.498 18.5 48.701C21.473 50.868 21.484 50.913 19.772 53.694C18.822 55.237 17.563 57.673 16.975 59.106C15.921 61.672 13.557 62.797 4.99999 64.801L1.49999 65.62L1.20799 72.159L0.915985 78.698L9.00799 81.002C16.458 83.124 17.217 83.582 18.551 86.775C20.865 92.315 20.415 93.303 13.498 97.85C6.08898 102.722 6.07298 103.123 13.032 109.41C17.526 113.47 18.192 113.526 30.199 110.866C35.267 109.743 34.965 109.625 41.215 115.191L44.93 118.5L43.487 123.882C42.694 126.842 42.301 129.678 42.614 130.185C43.5 131.617 53.981 136 56.522 136C57.773 136 61.837 134.152 65.554 131.894C72.725 127.537 71.93 127.624 83.317 129.971C89.552 131.257 89.301 131.05 92.447 137.481L95.147 143L103.824 142.978C112.352 142.957 112.526 142.908 114 140.087C118.833 130.841 119.357 130.175 122.389 129.437C124.812 128.846 123.4 128.517 116 127.948C89.214 125.888 71.349 120.407 57.5 110.003C52.664 106.369 44.304 97.106 42.147 92.99C34.961 79.28 35.178 61.343 42.669 49.864C48.908 40.302 61.08 30.664 73 25.847C84.049 21.381 85.583 20.888 91.124 20.017C94.081 19.553 99.425 18.689 103 18.097C106.575 17.505 113.325 16.635 118 16.165C125.182 15.442 125.996 15.188 123.252 14.53C120.707 13.919 119.329 12.571 116.885 8.299C115.17 5.301 113.256 2.694 112.633 2.506C112.01 2.319 107.879 1.9 103.453 1.576L95.407 0.987L92.715 5.244ZM136.393 17.584C134.746 21.054 134.532 21.163 130.094 20.765C120.549 19.91 91.123 22.954 88.671 25.049C88.215 25.439 91.945 25.524 96.96 25.238C120.372 23.903 143.515 30.437 158.702 42.67L162.904 46.055L205.702 45.28C250.261 44.473 250.226 44.429 203.5 42.507C190.114 41.956 184.876 41.375 183.068 40.241L180.635 38.715L184 35.709L187.365 32.702L184.432 30.356C180.726 27.39 179.491 27.409 175.832 30.488C172.991 32.878 172.734 32.916 169.239 31.456C164.414 29.439 164.465 29.56 166.954 26.064C169.557 22.408 169.103 21.407 164.214 20.023C160.664 19.017 160.368 19.126 157.5 22.486C154.125 26.439 153.169 26.656 148.88 24.438C146.789 23.357 146.144 22.51 146.785 21.688C148.38 19.642 148.919 15.9 147.672 15.522C147.028 15.327 144.609 14.902 142.299 14.579C138.248 14.013 138.037 14.121 136.393 17.584ZM163.445 52.282C163.175 52.987 163.076 61.875 163.227 72.032L163.5 90.5L172.118 90.787L180.735 91.074L181.368 87.912C181.715 86.173 182 79.454 182 72.982C182 59.415 181.955 59.477 190.953 60.598C200.909 61.839 208 66.226 208 71.146C208 72.081 206.889 74.167 205.532 75.78C203.627 78.044 201.63 78.998 196.782 79.96C186.469 82.006 187 81.643 187 86.639V91.144L192.75 90.52C211.972 88.434 222.199 83.163 225.117 73.841C227.881 65.007 221.155 58.128 204.713 52.974C199.569 51.361 195.527 51.024 181.219 51.013C168.075 51.003 163.819 51.307 163.445 52.282ZM250.147 52.009C245.481 52.997 238.905 56.505 235.25 59.954C233.118 61.966 233 62.838 233 76.539V91H242H251V86V81H261H271V86V91H280H289V76.589V62.178L285.75 59.429C279.735 54.342 272.857 51.909 263.271 51.48C258.447 51.263 252.541 51.501 250.147 52.009ZM315.703 52.498C309.272 54.266 305.063 56.377 301.75 59.493L299 62.081V76.54V91H308H317V78.18C317 65.742 317.075 65.296 319.508 63.18C322.485 60.591 328.354 60.285 333.532 62.449L337 63.898V77.449V91H345.3C350.422 91 354.059 90.541 354.8 89.8C355.61 88.99 356 84.373 356 75.58V62.56L352.75 59.779C343.7 52.032 328.36 49.018 315.703 52.498ZM367 70.952V91.075L376.25 90.788L385.5 90.5L385.758 71L386.015 51.5L376.508 51.164L367 50.828V70.952ZM268.139 63.135C269.921 64.38 270.912 66.119 271.189 68.489L271.598 72H261H250.402L250.838 68.26C251.704 60.847 260.945 58.11 268.139 63.135ZM87.141 98.474C87.655 98.988 104.734 100.446 128.5 102.004C154.882 103.734 155.475 103.996 145.926 109.67C135.596 115.808 118.249 119.857 101.5 120.039L91.5 120.147L99 122.032C104.457 123.403 110.215 123.927 120.142 123.958C133.744 124 133.785 124.007 134.394 126.433C135.143 129.418 137.839 130.372 143.042 129.493C147.185 128.793 147.869 127.492 145.965 123.935C145.078 122.277 145.43 121.763 148.423 120.335C151.845 118.704 151.994 118.724 155.762 121.335C160.175 124.393 161.949 124.595 166.002 122.499C168.898 121.001 168.901 120.989 167.203 117.945C165.544 114.973 165.561 114.843 167.836 112.966C170.15 111.059 170.21 111.061 173.944 113.21C177.651 115.343 177.794 115.35 182.358 113.608C186.741 111.933 188.501 110.043 185.75 109.964C185.063 109.944 183.15 108.803 181.5 107.429C178.548 104.97 178.532 104.905 180.5 103.395C182.408 101.931 187.252 102.008 191.318 103.568C192.182 103.9 194.219 102.86 196.155 101.1L199.5 98.059L143.083 98.029C112.054 98.013 86.88 98.213 87.141 98.474ZM205.277 99.973C200.717 102.753 200.006 106.461 203.384 109.838C205.721 112.176 206.969 112.529 214.016 112.849L222 113.212V108.554V103.895L216.75 104.198C212.884 104.42 211.5 104.896 211.5 106C211.5 106.895 212.615 107.628 214.267 107.818C217.727 108.216 216.839 110.005 213.191 109.985C208.657 109.959 206.411 107.17 208.17 103.75C208.887 102.357 210.388 102 215.535 102C221.333 102 222 101.794 222 100C222 98.197 221.335 98 215.25 98.004C210.305 98.006 207.638 98.533 205.277 99.973ZM230.998 101.002C228.349 103.476 227.903 104.487 228.458 106.752C229.571 111.294 231.326 112.257 239.432 112.777C245.962 113.196 247 113.039 247 111.632C247 110.354 245.969 109.997 242.25 109.985C239.637 109.976 236.825 109.533 236 109C234.915 108.299 235.815 108.026 239.25 108.015C243.328 108.002 244 107.717 244 106C244 104.292 243.333 104 239.441 104C236.656 104 235.122 103.611 235.5 103C235.84 102.45 238.566 102 241.559 102C246.333 102 247 101.755 247 100C247 98.209 246.333 98 240.606 98C234.88 98 233.875 98.314 230.998 101.002ZM252.667 98.667C252.3 99.033 252 102.408 252 106.167V113H255C257.968 113 258.655 111.717 258.075 107.25C257.985 106.563 258.607 106 259.456 106C260.305 106 261 106.47 261 107.045C261 107.62 262.105 109.195 263.455 110.545C266.32 113.411 273 114.079 273 111.5C273 110.675 272.175 110 271.167 110C268.264 110 267.808 108.78 270.256 107.566C273.193 106.11 273.821 101.339 271.325 99.447C269.432 98.012 253.968 97.365 252.667 98.667ZM281.238 100.305C278.594 103.195 277.702 106.367 278.505 110.022C279.048 112.497 279.652 113 282.079 113C284.957 113 285 112.918 285 107.434C285 101.951 285.041 101.872 287.75 102.184C290.315 102.479 290.52 102.853 290.802 107.75C291.093 112.805 291.212 113 294 113C296.788 113 296.907 112.805 297.198 107.75C297.48 102.853 297.685 102.479 300.25 102.184C302.953 101.873 303 101.961 303 107.324V112.781L306.5 113.19L310 113.598V107.867C310 102.729 309.71 101.929 307.195 100.139C304.821 98.449 302.766 98.139 293.818 98.125C284.198 98.11 283.066 98.307 281.238 100.305ZM317.148 101.009C314.531 103.51 314 104.775 314 108.509C314 112.975 314.02 113 317.5 113C319.944 113 321 112.548 321 111.5C321 110.389 322.167 110 325.5 110C328.833 110 330 110.389 330 111.5C330 112.5 331 113 333 113C335.958 113 336 112.926 336 107.669C336 103.006 335.687 102.17 333.5 101C332.125 100.264 331 99.288 331 98.831C331 98.374 328.592 98 325.648 98C321.063 98 319.846 98.431 317.148 101.009ZM344.106 100.901C341.502 103.333 341 104.546 341 108.401C341 112.844 341.102 113 344 113C346.868 113 347 112.811 347 108.7C347 103.704 348.313 102 352.165 102C355.454 102 357 104.377 357 109.434C357 112.762 357.209 113 360.127 113H363.254L362.764 107.897C362.121 101.209 358.67 98.089 351.856 98.036C348.083 98.007 346.629 98.544 344.106 100.901ZM368 98.878C368 99.36 368.705 100.34 369.566 101.055C371.844 102.946 374 107.513 374 110.45C374 112.698 374.415 113 377.5 113C380.604 113 381 112.705 381 110.395C381 108.962 382.311 105.848 383.913 103.474C387.132 98.704 386.993 98 382.833 98C380.956 98 380 98.517 380 99.531C380 102.084 377.018 102.471 375.38 100.131C373.899 98.018 368 97.016 368 98.878ZM267.306 102.639C268.65 103.984 267.006 104.515 262.59 104.164C260.069 103.963 258.256 103.394 258.562 102.9C259.194 101.877 266.332 101.665 267.306 102.639ZM328.964 103.456C330.733 105.588 329.352 107 325.5 107C321.881 107 320.481 105.794 321.38 103.452C322.104 101.566 327.398 101.569 328.964 103.456Z" fill="black"/>
</svg>
